<svg width="22" height="32" viewBox="0 0 22 32" fill="none" xmlns="http://www.w3.org/2000/svg">
<path d="M11.3079 18.0683L10.6784 18.0711C8.06217 18.0711 5.67701 17.9178 4.12215 17.6871L3.15525 17.4849C2.64317 17.3724 2.06009 17.2245 1.76244 17.0703C0.673643 16.506 0 15.4025 0 14.2214V14.1186C0.0254574 13.3487 0.701059 11.7313 0.724558 11.7313C1.81659 9.12862 5.11239 4.10748 7.46202 1.78844L8.16744 1.11454C8.35863 0.938069 8.5849 0.739805 8.76128 0.61672C9.30567 0.205573 9.97932 0 10.653 0C11.4049 0 12.104 0.230785 12.6758 0.667143L13.4231 1.35952L13.5825 1.51465C15.8639 3.61887 19.5944 9.1131 20.7361 11.9872L20.9024 12.4212C21.0895 12.9434 21.3128 13.675 21.3333 14.1186C21.3333 14.683 21.2021 15.2221 20.9436 15.7361C20.5814 16.378 20.0095 16.89 19.3359 17.1731C18.8698 17.3535 17.4697 17.6366 17.4442 17.6366C16.0325 17.8962 13.8048 18.0467 11.3079 18.0683ZM10.6659 32C9.17564 32 7.96739 30.8034 7.96739 29.3275L8.549 22.7511C8.549 21.5933 9.4968 20.6547 10.6659 20.6547C11.8369 20.6547 12.7828 21.5933 12.7828 22.7511L13.3644 29.3275C13.3644 30.8034 12.1561 32 10.6659 32Z" fill="#F5B202"/>
</svg>
