<svg width="32" height="22" viewBox="0 0 32 22" fill="none" xmlns="http://www.w3.org/2000/svg">
<path d="M18.0683 10.3591L18.0711 10.9886C18.0711 13.6048 17.9178 15.99 17.6871 17.5448L17.4849 18.5117C17.3724 19.0238 17.2245 19.6069 17.0703 19.9046C16.506 20.9933 15.4025 21.667 14.2214 21.667H14.1186C13.3487 21.6415 11.7313 20.9659 11.7313 20.9424C9.12862 19.8504 4.10748 16.5546 1.78844 14.205L1.11454 13.4995C0.938069 13.3084 0.739805 13.0821 0.61672 12.9057C0.205573 12.3613 0 11.6877 0 11.014C0 10.2621 0.230785 9.56296 0.667143 8.99115L1.35952 8.24393L1.51465 8.08447C3.61887 5.80309 9.1131 2.0726 11.9872 0.930929L12.4212 0.764629C12.9434 0.577463 13.675 0.354221 14.1186 0.333658C14.683 0.333658 15.2221 0.464863 15.7361 0.723352C16.378 1.08563 16.89 1.65745 17.1731 2.33109C17.3535 2.79716 17.6366 4.19731 17.6366 4.22277C17.8962 5.63453 18.0467 7.86222 18.0683 10.3591ZM32 11.0011C32 12.4913 30.8034 13.6996 29.3275 13.6996L22.7511 13.118C21.5933 13.118 20.6547 12.1702 20.6547 11.0011C20.6547 9.83007 21.5933 8.88422 22.7511 8.88422L29.3275 8.30262C30.8034 8.30262 32 9.51087 32 11.0011Z" fill="#F5B202"/>
</svg>
